<mxfile host="Electron" modified="2025-09-16T14:22:00.314Z" agent="Mozilla/5.0 (Windows NT 10.0; Win64; x64) AppleWebKit/537.36 (KHTML, like Gecko) draw.io/24.2.5 Chrome/120.0.6099.109 Electron/28.1.0 Safari/537.36" etag="GHI-8GQX_zzbvdtDNwim" version="24.2.5" type="device">
  <diagram name="Page-1" id="-ZmvHqxIwdDzNy45JYpa">
    <mxGraphModel dx="1050" dy="717" grid="1" gridSize="10" guides="1" tooltips="1" connect="1" arrows="1" fold="1" page="1" pageScale="1" pageWidth="850" pageHeight="1100" math="0" shadow="0">
      <root>
        <mxCell id="0" />
        <mxCell id="1" parent="0" />
        <mxCell id="m-M3N4Rq0jWYSTCjSG6P-1" value="Calling Application, e.g. FSCM*" style="rounded=1;whiteSpace=wrap;html=1;" parent="1" vertex="1">
          <mxGeometry x="110" y="70" width="120" height="60" as="geometry" />
        </mxCell>
        <mxCell id="m-M3N4Rq0jWYSTCjSG6P-2" value="&lt;b&gt;Validation Agent&lt;/b&gt;" style="rounded=1;whiteSpace=wrap;html=1;" parent="1" vertex="1">
          <mxGeometry x="110" y="250" width="120" height="60" as="geometry" />
        </mxCell>
        <mxCell id="m-M3N4Rq0jWYSTCjSG6P-3" value="" style="endArrow=classic;html=1;rounded=0;entryX=0.5;entryY=0;entryDx=0;entryDy=0;" parent="1" target="m-M3N4Rq0jWYSTCjSG6P-2" edge="1">
          <mxGeometry width="50" height="50" relative="1" as="geometry">
            <mxPoint x="170" y="130" as="sourcePoint" />
            <mxPoint x="220" y="80" as="targetPoint" />
          </mxGeometry>
        </mxCell>
        <mxCell id="m-M3N4Rq0jWYSTCjSG6P-4" value="REST Request" style="text;html=1;align=center;verticalAlign=middle;whiteSpace=wrap;rounded=0;" parent="1" vertex="1">
          <mxGeometry x="170" y="170" width="60" height="30" as="geometry" />
        </mxCell>
        <mxCell id="m-M3N4Rq0jWYSTCjSG6P-5" value="SAP System" style="rounded=1;whiteSpace=wrap;html=1;" parent="1" vertex="1">
          <mxGeometry x="250" y="70" width="120" height="60" as="geometry" />
        </mxCell>
        <mxCell id="m-M3N4Rq0jWYSTCjSG6P-6" value="" style="endArrow=classic;startArrow=classic;html=1;rounded=0;entryX=0.25;entryY=1;entryDx=0;entryDy=0;" parent="1" target="m-M3N4Rq0jWYSTCjSG6P-5" edge="1">
          <mxGeometry width="50" height="50" relative="1" as="geometry">
            <mxPoint x="230" y="250" as="sourcePoint" />
            <mxPoint x="280" y="200" as="targetPoint" />
          </mxGeometry>
        </mxCell>
        <mxCell id="m-M3N4Rq0jWYSTCjSG6P-7" value="OData Call&lt;div&gt;&amp;nbsp;Banking Data&lt;/div&gt;" style="text;html=1;align=center;verticalAlign=middle;whiteSpace=wrap;rounded=0;" parent="1" vertex="1">
          <mxGeometry x="240" y="170" width="130" height="30" as="geometry" />
        </mxCell>
        <mxCell id="m-M3N4Rq0jWYSTCjSG6P-11" value="LLM" style="rounded=1;whiteSpace=wrap;html=1;" parent="1" vertex="1">
          <mxGeometry x="110" y="500" width="120" height="60" as="geometry" />
        </mxCell>
        <mxCell id="m-M3N4Rq0jWYSTCjSG6P-14" value="" style="endArrow=classic;startArrow=classic;html=1;rounded=0;entryX=0.5;entryY=1;entryDx=0;entryDy=0;exitX=0.5;exitY=0;exitDx=0;exitDy=0;" parent="1" target="m-M3N4Rq0jWYSTCjSG6P-2" edge="1" source="m-M3N4Rq0jWYSTCjSG6P-11">
          <mxGeometry width="50" height="50" relative="1" as="geometry">
            <mxPoint x="170" y="360" as="sourcePoint" />
            <mxPoint x="220" y="310" as="targetPoint" />
          </mxGeometry>
        </mxCell>
        <mxCell id="m-M3N4Rq0jWYSTCjSG6P-15" value="" style="endArrow=classic;html=1;rounded=0;exitX=0.5;exitY=0;exitDx=0;exitDy=0;exitPerimeter=0;" parent="1" edge="1" source="m-M3N4Rq0jWYSTCjSG6P-12">
          <mxGeometry width="50" height="50" relative="1" as="geometry">
            <mxPoint x="60" y="360" as="sourcePoint" />
            <mxPoint x="110" y="310" as="targetPoint" />
          </mxGeometry>
        </mxCell>
        <mxCell id="m-M3N4Rq0jWYSTCjSG6P-18" value="" style="endArrow=classic;html=1;rounded=0;exitX=1;exitY=0.5;exitDx=0;exitDy=0;entryX=0.5;entryY=0;entryDx=0;entryDy=0;entryPerimeter=0;" parent="1" source="m-M3N4Rq0jWYSTCjSG6P-2" target="m-M3N4Rq0jWYSTCjSG6P-16" edge="1">
          <mxGeometry width="50" height="50" relative="1" as="geometry">
            <mxPoint x="450" y="400" as="sourcePoint" />
            <mxPoint x="500" y="350" as="targetPoint" />
          </mxGeometry>
        </mxCell>
        <mxCell id="m-M3N4Rq0jWYSTCjSG6P-19" value="&lt;b&gt;Reporting Agent&lt;/b&gt;" style="rounded=1;whiteSpace=wrap;html=1;" parent="1" vertex="1">
          <mxGeometry x="510" y="250" width="120" height="60" as="geometry" />
        </mxCell>
        <mxCell id="m-M3N4Rq0jWYSTCjSG6P-20" value="" style="endArrow=classic;html=1;rounded=0;entryX=0.5;entryY=1;entryDx=0;entryDy=0;exitX=0.5;exitY=0;exitDx=0;exitDy=0;exitPerimeter=0;" parent="1" source="m-M3N4Rq0jWYSTCjSG6P-16" target="m-M3N4Rq0jWYSTCjSG6P-19" edge="1">
          <mxGeometry width="50" height="50" relative="1" as="geometry">
            <mxPoint x="300" y="450" as="sourcePoint" />
            <mxPoint x="350" y="400" as="targetPoint" />
          </mxGeometry>
        </mxCell>
        <mxCell id="m-M3N4Rq0jWYSTCjSG6P-22" value="Accountant" style="shape=umlActor;verticalLabelPosition=bottom;verticalAlign=top;html=1;outlineConnect=0;strokeWidth=2;" parent="1" vertex="1">
          <mxGeometry x="440" y="70" width="30" height="50" as="geometry" />
        </mxCell>
        <mxCell id="m-M3N4Rq0jWYSTCjSG6P-23" value="" style="endArrow=classic;html=1;rounded=0;entryX=0.5;entryY=0;entryDx=0;entryDy=0;" parent="1" target="m-M3N4Rq0jWYSTCjSG6P-19" edge="1">
          <mxGeometry width="50" height="50" relative="1" as="geometry">
            <mxPoint x="470" y="150" as="sourcePoint" />
            <mxPoint x="500" y="100" as="targetPoint" />
          </mxGeometry>
        </mxCell>
        <mxCell id="m-M3N4Rq0jWYSTCjSG6P-24" value="&lt;b&gt;Notification Agent&lt;/b&gt;" style="rounded=1;whiteSpace=wrap;html=1;" parent="1" vertex="1">
          <mxGeometry x="305" y="250" width="120" height="60" as="geometry" />
        </mxCell>
        <mxCell id="m-M3N4Rq0jWYSTCjSG6P-25" value="" style="endArrow=classic;html=1;rounded=0;" parent="1" edge="1">
          <mxGeometry width="50" height="50" relative="1" as="geometry">
            <mxPoint x="360" y="250" as="sourcePoint" />
            <mxPoint x="430" y="150" as="targetPoint" />
          </mxGeometry>
        </mxCell>
        <mxCell id="m-M3N4Rq0jWYSTCjSG6P-26" value="" style="endArrow=classic;html=1;rounded=0;" parent="1" edge="1">
          <mxGeometry width="50" height="50" relative="1" as="geometry">
            <mxPoint x="230" y="280" as="sourcePoint" />
            <mxPoint x="300" y="280" as="targetPoint" />
          </mxGeometry>
        </mxCell>
        <mxCell id="m-M3N4Rq0jWYSTCjSG6P-28" value="" style="swimlane;startSize=0;" parent="1" vertex="1">
          <mxGeometry x="10" y="220" width="650" height="250" as="geometry">
            <mxRectangle x="10" y="220" width="50" height="40" as="alternateBounds" />
          </mxGeometry>
        </mxCell>
        <mxCell id="m-M3N4Rq0jWYSTCjSG6P-31" value="&lt;font style=&quot;font-size: 14px;&quot;&gt;&lt;b&gt;FinAgentX&lt;/b&gt;&lt;/font&gt;" style="text;html=1;align=center;verticalAlign=middle;resizable=0;points=[];autosize=1;strokeColor=none;fillColor=none;" parent="m-M3N4Rq0jWYSTCjSG6P-28" vertex="1">
          <mxGeometry y="10" width="90" height="30" as="geometry" />
        </mxCell>
        <mxCell id="m-M3N4Rq0jWYSTCjSG6P-12" value="Spec&amp;nbsp;&lt;div&gt;File&lt;/div&gt;" style="shape=cylinder3;whiteSpace=wrap;html=1;boundedLbl=1;backgroundOutline=1;size=15;" parent="m-M3N4Rq0jWYSTCjSG6P-28" vertex="1">
          <mxGeometry x="50" y="140" width="60" height="60" as="geometry" />
        </mxCell>
        <mxCell id="m-M3N4Rq0jWYSTCjSG6P-16" value="Validation&amp;nbsp;&lt;div&gt;Results&lt;/div&gt;" style="shape=cylinder3;whiteSpace=wrap;html=1;boundedLbl=1;backgroundOutline=1;size=15;" parent="1" vertex="1">
          <mxGeometry x="320" y="360" width="120" height="90" as="geometry" />
        </mxCell>
        <mxCell id="3GjBQ9m76ZsoQHCcCGa8-2" value="*FSCM : Finalcial Supply Chain Management,&lt;div&gt;Middleware to send bankstatements to SAP Systems&lt;/div&gt;" style="text;html=1;align=center;verticalAlign=middle;resizable=0;points=[];autosize=1;strokeColor=none;fillColor=none;" vertex="1" parent="1">
          <mxGeometry x="320" y="520" width="310" height="40" as="geometry" />
        </mxCell>
      </root>
    </mxGraphModel>
  </diagram>
</mxfile>
